<svg width="138" height="32" viewBox="0 0 138 32" fill="none" xmlns="http://www.w3.org/2000/svg">
<g clip-path="url(#clip0_349_11902)">
<path d="M52.7906 18.1205L50.8186 12.5286C50.7106 12.2044 50.2513 12.2044 50.1163 12.5286L48.1442 18.1205L47.1447 20.9029L45.767 24.7389C45.713 24.874 45.5779 24.982 45.4158 24.982H42.6334C42.3903 24.982 42.2012 24.7389 42.2822 24.4958L48.6305 7.23385C48.6845 7.09878 48.8196 6.99072 48.9817 6.99072H52.0883H52.1963L58.6527 24.4958C58.7337 24.7389 58.5716 24.982 58.3015 24.982H55.465C55.3029 24.982 55.1679 24.874 55.1138 24.7389L53.7902 20.9029L52.7906 18.1205Z" fill="#DCDCDC"/>
<path d="M74.0784 19.0119C74.0514 22.9829 71.4851 25.3061 67.9733 25.3061C66.2714 25.3061 65.0558 24.7118 64.2994 24.0095C64.0833 23.7933 63.7051 23.9284 63.6781 24.2256L63.624 24.6578C63.597 24.8469 63.4349 24.982 63.2729 24.982H61.0037C60.8146 24.982 60.6255 24.8199 60.6255 24.6308V7.01769C60.6255 6.82859 60.7876 6.6665 61.0037 6.6665H63.489C63.6781 6.6665 63.8672 6.82859 63.8672 7.01769V13.3389C63.8672 13.6631 64.2454 13.7982 64.4885 13.6091C65.434 12.8257 66.7306 12.4475 68.0273 12.4475C71.4581 12.4475 74.1054 14.7977 74.0784 19.0119ZM70.7827 18.8498C70.7827 16.6887 69.351 15.311 67.352 15.311C65.3529 15.311 63.9212 16.6887 63.9212 18.8498C63.9212 21.0109 65.3529 22.3886 67.352 22.3886C69.351 22.3886 70.7827 21.0109 70.7827 18.8498Z" fill="#DCDCDC"/>
<path d="M83.8836 24.6851C83.8836 24.631 83.8566 24.55 83.8566 24.496C83.8026 24.2258 83.4784 24.0908 83.2623 24.2799C82.5599 24.8742 81.4794 25.3064 80.1017 25.3064C77.4813 25.3064 75.5903 23.8476 75.5903 21.3624C75.5903 18.9041 77.3733 17.5264 80.1017 17.5264H83.3433C83.5324 17.5264 83.7215 17.3643 83.7215 17.1752V17.1212C83.7215 15.6354 82.695 15.0411 81.2633 15.0411C79.9396 15.0411 79.0751 15.5544 78.4808 16.4458C78.3728 16.6079 78.1567 16.6619 77.9946 16.5809L76.2387 15.6084C76.0496 15.5003 75.9955 15.2842 76.1036 15.0951C77.2922 13.1771 79.2372 12.4478 81.4524 12.4478C84.2618 12.4478 86.8822 13.6634 86.8822 17.5804V22.2268C86.8822 23.1453 86.9362 24.0097 87.0172 24.577C87.0442 24.7931 86.8822 24.9822 86.666 24.9822H84.2618C84.0727 24.9822 83.9106 24.8472 83.8836 24.6851ZM83.7215 19.7145H80.8581C79.5614 19.7145 78.886 20.3628 78.886 21.3083C78.886 22.3349 79.6424 22.9022 80.9661 22.9022C82.1547 22.9022 83.7215 22.3078 83.7215 19.9576V19.7145Z" fill="#DCDCDC"/>
<path d="M95.3647 12.4478C98.1471 12.4478 100.254 13.8525 101.038 15.9055C101.119 16.0946 101.011 16.2837 100.822 16.3648L98.6874 17.2022C98.4983 17.2833 98.3092 17.1752 98.2282 17.0131C97.7419 15.9866 96.6884 15.3382 95.4187 15.3382C93.4467 15.3382 92.2311 16.77 92.2311 18.9041C92.2311 21.1192 93.5007 22.4159 95.4187 22.4159C96.6884 22.4159 97.7689 21.7946 98.2822 20.7951C98.3633 20.633 98.5524 20.5519 98.7414 20.606L100.822 21.3624C101.011 21.4434 101.119 21.6595 101.038 21.8486C100.146 24.0097 97.958 25.3334 95.3647 25.3334C91.5287 25.3334 88.9624 22.7941 88.9624 18.9311C88.9624 15.0411 91.5017 12.4478 95.3647 12.4478Z" fill="#DCDCDC"/>
<path d="M112.33 24.7118C112.303 24.6578 112.303 24.5767 112.276 24.5227C112.222 24.2526 111.898 24.1445 111.681 24.3066C110.925 24.982 109.818 25.3061 108.602 25.3061C106.279 25.3061 103.469 24.2796 103.469 20.2275V13.1769C103.469 12.9878 103.631 12.8257 103.847 12.8257H106.387C106.603 12.8257 106.765 12.9878 106.765 13.1769V19.5792C106.765 22.0915 108.413 22.4426 109.331 22.4426C110.412 22.4426 112.141 21.8754 112.141 19.5522V13.1769C112.141 12.9878 112.303 12.8257 112.519 12.8257H115.058C115.247 12.8257 115.436 12.9878 115.436 13.1769V22.7128C115.436 23.172 115.49 23.9554 115.598 24.5497C115.626 24.7658 115.463 24.9549 115.247 24.9549H112.735C112.492 24.982 112.357 24.8739 112.33 24.7118Z" fill="#DCDCDC"/>
<path d="M137.804 17.3103V24.631C137.804 24.8201 137.642 24.9822 137.426 24.9822H134.995C134.778 24.9822 134.616 24.8201 134.616 24.631V17.7965C134.616 16.0946 133.698 15.2572 132.293 15.2572C130.943 15.2572 129.781 16.0946 129.781 18.0937V24.631C129.781 24.8201 129.619 24.9822 129.403 24.9822H126.917C126.728 24.9822 126.539 24.8201 126.539 24.631V17.7695C126.539 16.1217 125.648 15.2572 124.243 15.2572C122.892 15.2572 121.731 16.1217 121.731 18.0937V24.631C121.731 24.8201 121.569 24.9822 121.353 24.9822H118.813C118.624 24.9822 118.435 24.8201 118.435 24.631V13.1771C118.435 12.988 118.597 12.8259 118.813 12.8259H121.163C121.353 12.8259 121.515 12.961 121.515 13.1501C121.542 13.4473 121.893 13.5553 122.109 13.3662C122.838 12.7449 123.865 12.4478 125.08 12.4478C126.701 12.4478 127.998 13.0421 128.808 14.1496C128.97 14.3657 129.268 14.3387 129.403 14.1496C130.132 13.0961 131.402 12.4478 133.104 12.4478C135.913 12.4478 137.804 14.1766 137.804 17.3103Z" fill="#DCDCDC"/>
<path d="M4.84125 20.9838C7.32653 20.9838 9.32556 18.9847 9.32556 16.4995C9.32556 14.0142 7.32653 12.0151 4.84125 12.0151C2.35597 12.0151 0.356934 13.9872 0.356934 16.4724C0.356934 18.9577 2.35597 20.9838 4.84125 20.9838Z" fill="#DCDCDC"/>
<path d="M28.8032 20.9838C31.2884 20.9838 33.2875 18.9847 33.2875 16.4995C33.2875 14.0142 31.2884 12.0151 28.8032 12.0151C26.3179 12.0151 24.3188 14.0142 24.3188 16.4995C24.3188 18.9577 26.3179 20.9838 28.8032 20.9838Z" fill="#DCDCDC"/>
<path d="M12.3506 16.4726C12.3506 15.6352 13.0259 14.9868 13.8364 14.9868H19.8334C20.6709 14.9868 21.3192 15.6622 21.3192 16.4726C21.3192 17.31 20.6439 17.9584 19.8334 17.9584H13.8364C12.9989 17.9854 12.3506 17.31 12.3506 16.4726Z" fill="#DCDCDC"/>
</g>
<defs>
<clipPath id="clip0_349_11902">
<rect width="137.453" height="32" fill="white" transform="translate(0.356934)"/>
</clipPath>
</defs>
</svg>
