<svg width="117" height="32" viewBox="0 0 117 32" fill="none" xmlns="http://www.w3.org/2000/svg">
<g clip-path="url(#clip0_349_11861)">
<g clip-path="url(#clip1_349_11861)">
<path d="M28.5362 6.86035H37.5985V9.0456H31.0434L31.0428 13.3842H37.064V15.5701L31.0428 15.5695V21.8589L28.5356 21.8583" fill="#DCDCDC"/>
<path d="M47.3892 16.4594C47.3892 14.381 46.0822 12.924 44.175 12.924C42.2467 12.924 40.9609 14.381 40.9609 16.4594C40.9609 18.5378 42.2467 19.9948 44.175 19.9948C46.0822 19.9954 47.3892 18.5378 47.3892 16.4594ZM38.6045 16.4594C38.6045 13.224 40.9185 10.8882 44.175 10.8882C47.4105 10.8888 49.7463 13.224 49.7463 16.4594C49.7457 19.6947 47.4105 22.03 44.175 22.03C40.9179 22.03 38.6039 19.6947 38.6045 16.4594Z" fill="#DCDCDC"/>
<path d="M59.7994 16.4599C59.7994 14.3809 58.4923 12.9245 56.5853 12.9245C54.6569 12.9245 53.3711 14.3809 53.3711 16.4599C53.3711 18.5377 54.6569 19.9953 56.5853 19.9953C58.4923 19.9953 59.7994 18.5383 59.7994 16.4599ZM51.0146 16.4599C51.0146 13.2239 53.3286 10.8887 56.5853 10.8887C59.8206 10.8887 62.1559 13.2245 62.1559 16.4599C62.1559 19.6952 59.8206 22.0305 56.5853 22.0305C53.328 22.0305 51.014 19.6946 51.0146 16.4599Z" fill="#DCDCDC"/>
<path d="M80.5268 16.4609C80.5268 14.3181 79.2836 12.9255 77.3983 12.9255C75.5131 12.9249 74.2699 14.3181 74.2699 16.4603C74.2699 18.5818 75.5131 19.9962 77.3983 19.9962C79.2836 19.9962 80.5268 18.5818 80.5268 16.4609ZM72.0835 11.0609H74.4199V12.4323C75.02 11.5541 76.2839 10.8896 77.784 10.8896C80.9768 10.8896 82.8626 13.2037 82.8626 16.4609C82.8609 19.7174 80.8907 22.0315 77.6552 22.0315C76.3477 22.0315 75.0837 21.474 74.4199 20.617V25.7594H72.0835" fill="#DCDCDC"/>
<path d="M93.2549 11.0614H95.5907L95.5889 21.86H93.2549V11.0614ZM92.9111 7.76164C92.9111 6.90467 93.5537 6.24023 94.4113 6.24023C95.2895 6.24023 95.9552 6.90467 95.9552 7.76164C95.9552 8.59736 95.2895 9.2612 94.4113 9.2612C93.5537 9.2612 92.9111 8.59736 92.9111 7.76164Z" fill="#DCDCDC"/>
<path d="M98.4004 11.0614H100.736V12.8616C101.464 11.7046 102.707 10.8901 104.293 10.8901C106.585 10.8901 108.192 12.4115 108.192 14.7468V21.8607H105.856L105.857 15.2831C105.857 13.9324 105.022 12.9898 103.65 12.9898C101.828 12.9898 100.736 14.5324 100.736 17.1252L100.735 21.8607H98.4004" fill="#DCDCDC"/>
<path d="M91.4784 11.0354C91.1683 10.9386 90.7661 10.8901 90.4123 10.8901C89.1059 10.8895 87.692 11.8327 87.1131 13.1185V11.0614L84.7773 11.0608V21.8601H87.1131V17.8321C87.1131 14.4899 88.5059 13.0754 90.0917 13.0754C90.5819 13.0754 91.0927 13.1604 91.4784 13.3305" fill="#DCDCDC"/>
<path d="M69.8195 19.6784C69.4126 19.8708 68.8591 19.953 68.4522 19.953C67.5741 19.953 66.9739 19.3954 66.9739 18.324V13.0535H69.8118V11.0608L66.9739 11.0602V7.84668H64.6393V11.0602H62.7529V13.0529L64.6393 13.0535V18.4528C64.6393 20.9169 66.1601 22.0307 68.1953 22.0307C68.7382 22.0307 69.34 21.9392 69.8195 21.7986" fill="#DCDCDC"/>
<path d="M116.469 19.6794C116.062 19.8718 115.508 19.9539 115.101 19.9539C114.222 19.9539 113.622 19.3964 113.622 18.325L113.624 13.0545H116.46V11.0618L113.624 11.0612V7.84766H111.288V11.0612H109.402V13.0539L111.288 13.0545V18.4538C111.288 20.9179 112.809 22.0317 114.844 22.0317C115.386 22.0317 115.988 21.9402 116.469 21.7996" fill="#DCDCDC"/>
<path d="M12.5371 18.9998H16.5373V15.4608C15.9485 15.8016 15.2669 16 14.5375 16C12.328 16 10.5373 14.2093 10.5373 11.9998C10.5373 9.79092 12.328 7.99961 14.5375 7.99961C15.2669 7.99961 15.9485 8.19864 16.5373 8.53942V4H0.537109V28H7.53761V23.9998C7.53761 21.2387 9.77602 18.9998 12.5371 18.9998Z" fill="#DCDCDC"/>
</g>
</g>
<defs>
<clipPath id="clip0_349_11861">
<rect width="116.4" height="32" fill="white" transform="translate(0.537109)"/>
</clipPath>
<clipPath id="clip1_349_11861">
<rect width="116.4" height="24" fill="white" transform="translate(0.537109 4)"/>
</clipPath>
</defs>
</svg>
