<svg width="110" height="32" viewBox="0 0 110 32" fill="none" xmlns="http://www.w3.org/2000/svg">
<g clip-path="url(#clip0_27_158)">
<path d="M13.0683 15.7046C13.0424 15.7309 12.9648 15.8116 12.9665 15.9975C12.9729 16.4204 13.4984 16.5208 13.9383 16.5306C14.5544 16.5438 15.1512 16.3496 15.7042 16.0732C15.1883 15.698 14.4461 15.4808 13.8882 15.4808C13.3626 15.4808 13.1476 15.6207 13.0683 15.7046Z" fill="white"/>
<path d="M20.6089 6.97733C19.3799 4.98473 17.5752 3.75232 15.2368 3.67169C10.9224 3.52525 6.94111 4.78728 3.28646 7.06289C1.34593 8.27062 0.157363 10.1102 0.0797423 12.45C-0.0706487 16.9057 1.17452 21.021 3.48698 24.7741C4.69495 26.7338 6.53684 27.8593 8.8412 27.9349C12.9292 28.0682 16.7068 26.8572 20.2288 24.8416C22.7677 23.3887 24.0581 21.1229 23.974 18.0938C23.6797 14.1316 22.703 10.3702 20.6089 6.97733ZM14.0612 21.4718C13.3885 21.7219 12.6834 21.8486 11.9929 21.8486C11.5143 21.8486 11.0421 21.7877 10.5942 21.6643C7.93887 20.9387 6.01128 18.4409 6.01128 15.726C6.01128 14.0461 6.6371 12.4911 7.77552 11.3459C8.90912 10.204 10.4438 9.56886 11.9719 9.5771C14.8034 9.60837 16.5192 11.7145 16.5903 11.8033C16.7893 12.0518 16.752 12.4154 16.5079 12.6178C16.2637 12.8202 15.9064 12.7823 15.7074 12.5339C15.6945 12.5175 14.2456 10.7602 11.959 10.7338C11.9444 10.7338 11.9282 10.7338 11.9137 10.7338C10.7138 10.7338 9.47027 11.2686 8.57441 12.1686C7.92429 12.8235 7.14809 13.972 7.14809 15.726C7.14809 17.9275 8.72154 19.9547 10.8885 20.5471C11.76 20.7856 12.7481 20.7264 13.6698 20.3842C14.7905 19.9663 15.8659 19.0152 16.2071 17.9292C16.6502 17.6807 17.0706 17.4175 17.4555 17.1312C17.517 19.109 15.8093 20.8218 14.0596 21.4718H14.0612ZM18.8026 15.1419C18.7556 15.1928 18.1961 15.8033 17.3472 16.4121C17.1838 16.5306 16.82 16.7922 16.3154 17.0522C15.591 17.429 14.763 17.7087 13.9157 17.6873C12.3972 17.6544 11.8426 16.8005 11.8296 16.0156C11.8231 15.5763 11.9719 15.1896 12.2582 14.8934C12.6236 14.5166 13.1718 14.3257 13.8898 14.3257C14.7646 14.3257 15.9759 14.6845 16.7359 15.4381C17.4669 14.9016 17.9568 14.3685 17.9665 14.3586C18.18 14.1234 18.5406 14.1102 18.7702 14.3257C19.0015 14.5429 19.016 14.9082 18.8026 15.1435V15.1419Z" fill="white"/>
<path d="M108.514 17.383V9.66102C108.514 9.29245 108.22 8.99298 107.858 8.99298C107.496 8.99298 107.202 9.29245 107.202 9.66102V17.3977C107.205 17.5639 107.244 21.4619 102.95 21.587C98.7201 21.4652 98.6554 17.8108 98.6618 17.3813V9.66102C98.6618 9.29245 98.3675 8.99298 98.0048 8.99298C97.6427 8.99298 97.3484 9.29245 97.3484 9.66102V17.3665C97.3484 17.4208 97.292 22.7618 102.952 22.9231C108.574 22.7601 108.518 17.4192 108.516 17.3813L108.514 17.383Z" fill="white"/>
<path d="M91.4039 13.2118C91.2777 8.96665 87.5635 8.98474 86.3409 8.99297C85.1747 8.99955 81.0172 8.99297 81.016 8.99297C80.841 8.99297 80.6748 9.06372 80.5518 9.18877C80.4288 9.31383 80.359 9.48497 80.359 9.66266V22.1037C80.359 22.4722 80.6532 22.7717 81.016 22.7717C81.3781 22.7717 81.6723 22.4722 81.6723 22.1037V10.3307C82.8931 10.3307 85.4677 10.334 86.3472 10.3307C86.3682 10.3307 86.3878 10.3307 86.4088 10.3307C88.9625 10.3307 90.0297 11.1797 90.0906 13.2529C90.1122 13.9802 89.8661 14.6203 89.3569 15.1534C88.8794 15.6536 88.1749 16.0535 87.3727 16.3003C87.0702 15.8823 86.8679 15.6026 86.8324 15.5565C86.5914 15.239 85.93 14.4919 85.0054 14.4113C84.9876 14.4113 84.968 14.4097 84.9502 14.4097L84.0396 14.4064C83.0871 14.4064 82.3128 15.1945 82.3128 16.1637C82.3128 17.1328 83.0871 17.921 84.0396 17.921H85.5C85.6598 17.921 85.833 17.9111 86.0042 17.8979L85.0555 16.5833H84.0396C83.8119 16.5833 83.6255 16.3941 83.6255 16.1637C83.6255 15.9334 83.8119 15.7425 84.0364 15.7425L84.9128 15.7458C85.1849 15.7803 85.5273 16.0255 85.7924 16.3743C85.807 16.3941 85.8558 16.4599 85.9351 16.5685L86.826 17.8008C87.7639 19.1007 89.1565 21.0308 90.2136 22.4985C90.343 22.6779 90.5421 22.7717 90.7444 22.7717C90.8782 22.7717 91.0146 22.7289 91.1325 22.6417C91.4249 22.4228 91.4883 22.0049 91.2746 21.7071C91.0013 21.327 89.3937 19.0975 88.1907 17.429C88.9669 17.1378 89.7108 16.7001 90.3012 16.0814C91.0564 15.2899 91.4382 14.2961 91.4058 13.2101L91.4039 13.2118Z" fill="white"/>
<path d="M73.7373 9.66102C73.7373 9.29245 73.443 8.99298 73.0809 8.99298C72.7182 8.99298 72.424 9.29245 72.424 9.66102V17.3977C72.4271 17.5639 72.4664 21.4619 68.1726 21.587C63.9422 21.4652 63.8776 17.8108 63.8839 17.3813V9.66102C63.8839 9.29245 63.5897 8.99298 63.2276 8.99298C62.8654 8.99298 62.5711 9.29245 62.5711 9.66102V17.3665C62.5711 17.4208 62.5145 22.7618 68.1745 22.9231C73.7969 22.7601 73.7404 17.4192 73.7385 17.3813V9.66102H73.7373Z" fill="white"/>
<path d="M51.743 21.1657C50.6789 21.5606 49.5372 21.6281 48.5298 21.3533C46.0265 20.6688 44.2089 18.3274 44.2089 15.7852C44.2089 13.7597 45.1047 12.4336 45.8551 11.6766C46.8884 10.6367 48.3277 10.018 49.7119 10.018C49.7296 10.018 49.7474 10.018 49.7636 10.018C52.4043 10.0476 54.078 12.0781 54.0926 12.0962C54.3222 12.3825 54.7362 12.4253 55.0176 12.1933C55.299 11.9613 55.3426 11.54 55.113 11.2521C55.0305 11.1485 53.0496 8.71653 49.7781 8.68033C48.0106 8.67046 46.2399 9.40595 44.9301 10.724C43.617 12.0452 42.8925 13.842 42.8925 15.7836C42.8925 18.9197 45.1193 21.8058 48.1869 22.6433C48.7061 22.7849 49.2494 22.8556 49.8024 22.8556C50.5997 22.8556 51.4147 22.7091 52.1909 22.4195C54.2123 21.6676 56.1851 19.6898 56.1124 17.4043C55.6676 17.7367 55.1809 18.0395 54.6699 18.3274C54.2753 19.5829 53.0334 20.682 51.7381 21.1641L51.743 21.1657Z" fill="white"/>
<path d="M56.7058 14.2023C56.6945 14.2155 56.1285 14.8309 55.2844 15.4496C54.4063 14.5791 53.0075 14.1645 51.9952 14.1645C51.1672 14.1645 50.5333 14.385 50.1113 14.821C49.7798 15.1632 49.6084 15.6108 49.6164 16.1176C49.631 17.0259 50.2714 18.0115 52.0259 18.0493C53.0043 18.074 53.9616 17.7515 54.7976 17.3155C55.3814 17.0144 55.8019 16.7132 55.9895 16.5767C56.9694 15.8725 57.6162 15.1682 57.6712 15.109C57.917 14.8375 57.9008 14.4146 57.6341 14.1645C57.3689 13.9144 56.9532 13.9308 56.7058 14.2023ZM52.0534 16.7132C51.5456 16.7017 50.9376 16.5849 50.9295 16.0979C50.9263 15.884 51.0169 15.7902 51.046 15.7589C51.1398 15.6635 51.3871 15.5006 51.9936 15.5006C52.6372 15.5006 53.4959 15.7507 54.091 16.1835C53.4522 16.5026 52.7617 16.7281 52.0518 16.7116L52.0534 16.7132Z" fill="white"/>
<path d="M33.7592 28.5964C33.6298 28.5964 33.5263 28.4895 33.5263 28.3595V3.24555C33.5263 3.11391 33.6314 3.00861 33.7592 3.00861C33.8869 3.00861 33.992 3.11556 33.992 3.24555V28.3595C33.992 28.4912 33.8869 28.5964 33.7592 28.5964Z" fill="white"/>
</g>
<defs>
<clipPath id="clip0_27_158">
<rect width="109.07" height="32" fill="white"/>
</clipPath>
</defs>
</svg>
