<svg width="160" height="32" viewBox="0 0 160 32" fill="none" xmlns="http://www.w3.org/2000/svg">
<g clip-path="url(#clip0_349_11843)">
<g clip-path="url(#clip1_349_11843)">
<mask id="mask0_349_11843" style="mask-type:luminance" maskUnits="userSpaceOnUse" x="0" y="6" width="160" height="20">
<path d="M159.197 6.6665H0.530273V25.3332H159.197V6.6665Z" fill="white"/>
</mask>
<g mask="url(#mask0_349_11843)">
<path d="M67.6244 11.2837C65.8268 11.2837 64.3048 12.1603 63.4766 13.65V11.6728H61.6392V25.3311H63.4766V20.1086C64.3534 21.4604 65.7851 22.2286 67.4489 22.2286C68.7556 22.2286 69.9845 21.6845 70.906 20.6996C71.8661 19.6728 72.3962 18.2422 72.3962 16.6761C72.3962 13.5515 70.3902 11.2812 67.6244 11.2812V11.2837ZM70.471 16.7475C70.471 18.9833 69.0443 20.4853 66.9213 20.4853C64.7982 20.4853 63.4424 19.0128 63.4424 16.8189C63.4424 14.6251 64.9034 13.0295 66.9922 13.0295C69.081 13.0295 70.471 14.5585 70.471 16.75V16.7475Z" fill="#DCDCDC"/>
<path d="M55.0676 19.0498L51.745 11.6753H49.7295L54.0464 21.0542L51.7792 25.3337H53.8363L60.6842 11.6753H58.6833L55.0676 19.0498Z" fill="#DCDCDC"/>
<path d="M78.9154 11.2832C75.7639 11.2832 73.5649 13.5091 73.5649 16.6954C73.5649 19.8816 75.8958 22.2306 79.2328 22.2306C80.7473 22.2306 82.2742 21.7135 83.3201 20.8443L83.3544 20.8172V18.9557L83.2025 19.0912C82.2281 19.9529 80.8356 20.47 79.4823 20.47C77.1564 20.47 75.6755 19.2093 75.5001 17.0918H83.6916V16.0059C83.6916 13.0511 81.9077 11.2857 78.9198 11.2857L78.9154 11.2832ZM75.561 15.6095C75.8883 14.0016 77.1097 13.0462 78.8445 13.0462C80.6962 13.0462 81.7758 13.9548 81.8959 15.6095H75.561Z" fill="#DCDCDC"/>
<path d="M46.5621 14.5638H39.0765V9.28223H37.1343V21.8941H39.0765V16.3638H46.5621V21.8941H48.5067V9.28223H46.5621V14.5638Z" fill="#DCDCDC"/>
<path d="M147.16 9.01562H145.322V21.9649H147.16V9.01562Z" fill="#DCDCDC"/>
<path d="M127.959 11.2837C126.406 11.2837 125.306 11.9781 124.691 13.3471C124.141 12.0322 123.044 11.2837 121.644 11.2837C120.244 11.2837 119.225 11.9264 118.605 13.2437V11.6728H116.768V21.9652H118.605V16.1985C118.605 14.2631 119.562 13.0098 121.046 13.0098C122.409 13.0098 123.222 13.9307 123.222 15.4696V21.9627H125.06V15.807C125.06 14.0563 125.958 13.0098 127.466 13.0098C128.89 13.0098 129.642 13.9701 129.642 15.7897V21.9627H131.497V15.5041C131.497 12.8202 130.207 11.2812 127.957 11.2812L127.959 11.2837Z" fill="#DCDCDC"/>
<path d="M90.0153 11.4976C88.8038 11.4976 87.858 12.2289 87.3111 13.5733V11.6748H85.4395V21.9648H87.3111V16.5724C87.3279 14.5927 88.278 13.3122 89.734 13.3122C90.3718 13.3122 90.9019 13.4797 91.3126 13.8072L91.4613 13.9254V11.9679L91.4246 11.9408C91.0363 11.6428 90.5747 11.4976 90.0153 11.4976Z" fill="#DCDCDC"/>
<path d="M157.198 11.6753L153.583 19.0498L150.261 11.6753H148.245L152.562 21.0542L150.295 25.3337H152.352L159.197 11.6753H157.198Z" fill="#DCDCDC"/>
<path d="M139.24 11.2837C137.442 11.2837 135.92 12.1603 135.092 13.65V11.6728H133.255V25.3311H135.092V20.1086C135.969 21.4604 137.401 22.2286 139.064 22.2286C140.371 22.2286 141.6 21.6845 142.521 20.6996C143.481 19.6728 144.011 18.2422 144.011 16.6761C144.011 13.5515 142.006 11.2812 139.24 11.2812V11.2837ZM142.086 16.7475C142.086 18.9833 140.659 20.4853 138.536 20.4853C136.413 20.4853 135.057 19.0128 135.057 16.8189C135.057 14.6251 136.518 13.0295 138.607 13.0295C140.696 13.0295 142.086 14.5585 142.086 16.75V16.7475Z" fill="#DCDCDC"/>
<path d="M110.071 11.2832C106.93 11.2832 104.65 13.5805 104.65 16.7471C104.65 19.9136 106.93 22.2281 110.071 22.2281C113.213 22.2281 115.493 19.9234 115.493 16.7471C115.493 13.5707 113.213 11.2832 110.071 11.2832ZM110.071 20.4676C107.971 20.4676 106.556 18.9729 106.556 16.7471C106.556 14.5211 107.968 13.0437 110.071 13.0437C112.175 13.0437 113.587 14.531 113.587 16.7471C113.587 18.9631 112.175 20.4676 110.071 20.4676Z" fill="#DCDCDC"/>
<path d="M99.4113 20.4505C96.2473 20.4505 94.1193 18.5127 94.1193 15.6318C94.1193 12.7509 96.2399 10.8673 99.3939 10.8673C101.06 10.8673 102.496 11.3819 103.787 12.4431L103.936 12.5663V10.4462L103.901 10.4191C102.763 9.5007 101.18 9.01562 99.323 9.01562C95.0745 9.01562 92.1064 11.7734 92.1064 15.7204C92.1064 19.6675 95.0309 22.3194 99.2178 22.3194C101.175 22.3194 102.692 21.8048 103.992 20.7017L104.023 20.6746V18.6334L103.87 18.7713C102.656 19.8694 101.114 20.4505 99.4089 20.4505H99.4113Z" fill="#DCDCDC"/>
<path d="M28.9872 6.6665L23.9276 6.67143C23.7346 6.67143 23.5465 6.75022 23.4097 6.88811L16.9429 13.4132L16.9258 13.423C16.3102 14.0436 15.2572 13.6028 15.2572 12.7262V7.44213C15.2621 7.01369 14.9177 6.6665 14.4926 6.6665L9.43297 6.67143C9.24002 6.67143 9.05186 6.75022 8.91509 6.88811L0.745485 15.1196C0.601344 15.2624 0.52561 15.4618 0.530496 15.6637V23.5382C0.530496 23.9666 0.87741 24.3138 1.3025 24.3138L6.35474 24.3089C6.54774 24.3089 6.73586 24.23 6.87265 24.0921L13.359 17.5573C13.9746 16.9367 15.0276 17.375 15.0276 18.2541V23.5382C15.0276 23.9666 15.3721 24.3138 15.7972 24.3138L20.8494 24.3089C21.0424 24.3089 21.2305 24.23 21.3673 24.0921L29.5369 15.8607C29.681 15.7154 29.7567 15.5185 29.7519 15.3141L29.7567 7.43966C29.7567 7.01369 29.4123 6.6665 28.9872 6.6665Z" fill="#DCDCDC"/>
</g>
</g>
</g>
<defs>
<clipPath id="clip0_349_11843">
<rect width="158.667" height="32" fill="white" transform="translate(0.530273)"/>
</clipPath>
<clipPath id="clip1_349_11843">
<rect width="158.667" height="18.6667" fill="white" transform="translate(0.530273 6.6665)"/>
</clipPath>
</defs>
</svg>
