<svg width="120" height="32" viewBox="0 0 120 32" fill="none" xmlns="http://www.w3.org/2000/svg">
<g clip-path="url(#clip0_349_11418)">
<g clip-path="url(#clip1_349_11418)">
<path d="M119.306 22.0513H1.38867V26.9998H119.336V22.0513H119.306Z" fill="#DCDCDC"/>
<path d="M0.730469 17.0732L4.88733 16.2981C4.97705 18.4146 5.63497 19.458 7.04053 19.458C8.26666 19.458 8.83486 18.8916 8.83486 17.252V5H13.1712V16.2087C13.1712 20.5908 11.3469 22.4092 6.95081 22.4092C2.40518 22.3794 1.05943 19.7263 0.730469 17.0732Z" fill="#DCDCDC"/>
<path d="M15.833 17.878V9.68018H20.0497V17.9674C20.0497 19.1598 20.6179 19.6368 21.545 19.6368C22.7711 19.6368 23.5187 18.8916 23.5187 17.1626V9.68018H27.7354V22.0813H23.6982V18.7127H23.5785C22.9505 21.6043 21.6048 22.3496 19.7207 22.3496C17.1189 22.3496 15.833 20.9783 15.833 17.878Z" fill="#DCDCDC"/>
<path d="M29.8887 19.4284L32.1615 17.908C32.9091 19.3091 34.1053 19.8457 35.6604 19.8457C36.8268 19.8457 37.3351 19.5178 37.3351 18.862C37.3351 18.1167 36.8267 17.7292 35.4511 17.4609L33.7166 17.133C31.3839 16.7156 30.098 15.3444 30.098 13.4365C30.098 10.8728 32.1615 9.41211 35.3315 9.41211C38.4716 9.41211 39.9369 10.694 40.7145 12.1248L38.5015 13.5557C37.9333 12.2739 36.7968 11.8566 35.7502 11.8566C34.6436 11.8566 34.0754 12.2441 34.0754 12.8999C34.0754 13.5259 34.5539 13.8837 35.7502 14.0923L37.5146 14.4202C40.1164 14.8972 41.4023 15.9406 41.4023 18.2658C41.4023 20.4419 39.9967 22.4094 35.8997 22.4094C32.8493 22.3498 30.8157 21.1872 29.8887 19.4284Z" fill="#DCDCDC"/>
<path d="M43.8837 18.7125V12.1542H42.209V9.67999H43.8837V6.43066H48.1004V9.67999H50.1339V12.1542H48.1004V18.3548C48.1004 19.1597 48.4293 19.4876 49.0573 19.4876H50.1639V22.0811H47.3826C44.751 22.0513 43.8837 21.2166 43.8837 18.7125Z" fill="#DCDCDC"/>
<path d="M51.4805 9.68018H56.056L57.7606 17.4905H57.8803L60.0634 9.68018H63.5623L65.6557 17.4905H65.7753L67.6594 9.68018H70.9789L67.1211 22.0514H63.5025L61.2895 14.271H61.1699L59.0765 22.0514H55.4579L51.4805 9.68018Z" fill="#DCDCDC"/>
<path d="M71.3672 15.8512C71.3672 11.8864 73.969 9.35254 77.8268 9.35254C81.7145 9.35254 84.2864 11.8864 84.2864 15.8512C84.2864 19.816 81.6846 22.3498 77.8268 22.3498C73.9391 22.3498 71.3672 19.816 71.3672 15.8512ZM79.8604 15.8512C79.8604 12.6615 79.1725 11.8268 77.8268 11.8268C76.481 11.8268 75.7932 12.6615 75.7932 15.8512C75.7932 19.0409 76.481 19.8756 77.8268 19.8756C79.1725 19.9054 79.8604 19.0409 79.8604 15.8512Z" fill="#DCDCDC"/>
<path d="M86.1709 9.68025H90.1483V13.7941H90.2679C90.8661 10.3957 92.0025 9.59082 93.8566 9.59082H94.0659V13.2873H92.0324C90.8062 13.2873 90.4175 13.6748 90.4175 15.1355V22.0217H86.2008V9.68025H86.1709Z" fill="#DCDCDC"/>
<path d="M101.064 17.103L99.8674 18.4444V22.0515H95.6807V5.02979H99.8674V14.9864L104.174 9.65038H107.942L103.845 14.1219L108.211 22.0515H103.725L101.064 17.103Z" fill="#DCDCDC"/>
<path d="M108.48 19.4284L110.783 17.908C111.531 19.3091 112.727 19.8457 114.282 19.8457C115.448 19.8457 115.957 19.5178 115.957 18.862C115.957 18.1167 115.448 17.7292 114.073 17.4609L112.338 17.133C110.006 16.7156 108.72 15.3444 108.72 13.4365C108.72 10.8728 110.783 9.41211 113.953 9.41211C117.093 9.41211 118.559 10.694 119.336 12.1248L117.123 13.5557C116.555 12.2739 115.419 11.8566 114.372 11.8566C113.295 11.8566 112.697 12.2441 112.697 12.8999C112.697 13.5259 113.176 13.8837 114.372 14.0923L116.136 14.4202C118.738 14.8972 120.024 15.9406 120.024 18.2658C120.024 20.4419 118.618 22.4094 114.521 22.4094C111.471 22.3498 109.408 21.1872 108.48 19.4284Z" fill="#DCDCDC"/>
</g>
</g>
<defs>
<clipPath id="clip0_349_11418">
<rect width="119.26" height="32" fill="white" transform="translate(0.730469)"/>
</clipPath>
<clipPath id="clip1_349_11418">
<rect width="119.263" height="22" fill="white" transform="translate(0.730469 5)"/>
</clipPath>
</defs>
</svg>
