<svg width="160" height="32" viewBox="0 0 160 32" fill="none" xmlns="http://www.w3.org/2000/svg">
<g clip-path="url(#clip0_349_11513)">
<path fill-rule="evenodd" clip-rule="evenodd" d="M45.9496 7.2998C41.6728 7.2998 38.1934 10.8053 38.1934 15.114C38.1934 19.4227 41.6338 22.8904 45.8787 22.9293H45.9496C50.2275 22.9293 53.707 19.4238 53.707 15.114C53.707 10.8041 50.2275 7.2998 45.9496 7.2998ZM45.9496 19.7852C43.5012 19.7852 41.6345 17.6899 41.6345 15.1152C41.6345 12.5403 43.5023 10.4451 45.9496 10.4451C48.3968 10.4451 50.2646 12.5403 50.2646 15.1152C50.2646 17.6899 48.3979 19.7852 45.9496 19.7852Z" fill="#DCDCDC"/>
<path fill-rule="evenodd" clip-rule="evenodd" d="M127.584 11.2354C124.369 11.2354 121.753 13.8609 121.753 17.0877C121.753 20.3145 124.369 22.9401 127.584 22.9401C130.799 22.9401 133.414 20.3145 133.414 17.0877C133.414 13.8609 130.799 11.2354 127.584 11.2354ZM127.584 20.4366C125.828 20.4366 124.651 19.0022 124.651 17.0865C124.651 15.1708 125.83 13.7364 127.584 13.7364C129.337 13.7364 130.516 15.1708 130.516 17.0865C130.516 19.0022 129.337 20.4366 127.584 20.4366Z" fill="#DCDCDC"/>
<path fill-rule="evenodd" clip-rule="evenodd" d="M62.0453 11.3022C65.1032 11.3022 67.4402 13.8266 67.4402 17.1126C67.4402 20.4203 65.1032 22.9447 61.805 22.9447C60.332 22.9447 58.859 22.3556 57.9172 21.2673V25.8608H54.6846V11.6504H57.7425V14.1566C58.6346 12.164 60.1589 11.3022 62.0453 11.3022ZM57.9172 17.1126C57.8954 19.0711 59.2932 20.551 61.1279 20.551C62.8753 20.551 64.1639 19.0929 64.1639 17.1126C64.1639 15.1323 62.9627 13.696 61.1279 13.696C59.2932 13.696 57.8954 15.1541 57.9172 17.1126Z" fill="#DCDCDC"/>
<path d="M88.3237 11.1968C91.1849 11.1968 92.9322 13.2206 92.9322 16.5067V22.6434H89.7215V16.7242C89.7215 14.7222 88.7605 13.6123 87.0568 13.6123C85.5061 13.6123 84.0426 14.9833 84.0426 16.7242V22.6434H80.8101V11.6102H83.7368V14.1772C84.9107 12.0973 86.5794 11.1968 88.3237 11.1968Z" fill="#DCDCDC"/>
<path d="M120.652 16.4955C120.652 13.253 118.883 11.2291 116 11.1856C114.546 11.1673 112.984 11.9055 111.719 13.6343V7.6167H108.508V22.6323H111.719V16.713C111.719 14.9721 113.204 13.6012 114.755 13.6012C116.48 13.6012 117.441 14.711 117.441 16.713V22.6323H120.652V16.4955Z" fill="#DCDCDC"/>
<path d="M142.028 11.1968C144.89 11.1968 146.637 13.2206 146.637 16.5067V22.6434H143.427V16.7242C143.427 14.7222 142.465 13.6123 140.761 13.6123C139.211 13.6123 137.747 14.9833 137.747 16.7242V22.6434H134.514V11.6102H137.441V14.1772C138.615 12.0973 140.284 11.1968 142.028 11.1968Z" fill="#DCDCDC"/>
<path fill-rule="evenodd" clip-rule="evenodd" d="M94.5215 7.62793H102.581C105.399 7.62793 107.408 9.73881 107.408 12.6984C107.408 15.658 105.399 17.7472 102.581 17.7472H97.9069V22.6435H94.5215V7.62793ZM101.686 15.1792C103.018 15.1792 103.87 14.2217 103.87 12.6984C103.87 11.1968 103.018 10.2393 101.686 10.2393H97.9069V15.1792H101.686Z" fill="#DCDCDC"/>
<path fill-rule="evenodd" clip-rule="evenodd" d="M68.1729 17.0877C68.1729 13.8611 70.7888 11.2357 74.0035 11.2354C77.2182 11.2357 79.8327 13.8611 79.8327 17.0877C79.8327 17.4243 79.8044 17.7621 79.7465 18.0928H77.6736V18.0943H71.203L71.2533 18.2475C71.5811 19.6318 72.6599 20.5625 74.004 20.5625C74.9801 20.5625 75.8081 20.1798 76.2823 19.5113H79.3095C78.3611 21.5996 76.2977 22.9401 74.004 22.9401C70.789 22.9401 68.1729 20.3145 68.1729 17.0877ZM71.2337 15.9887L71.2486 15.942C71.5704 14.5483 72.5281 13.6129 74.004 13.6129C75.4798 13.6129 76.4364 14.5495 76.7582 15.942L76.7731 15.9887H71.2337Z" fill="#DCDCDC"/>
<path fill-rule="evenodd" clip-rule="evenodd" d="M153.445 11.2354C150.231 11.2357 147.615 13.8611 147.615 17.0877C147.615 20.3145 150.231 22.9401 153.445 22.9401C155.739 22.9401 157.802 21.5996 158.751 19.5113H155.725C155.25 20.1798 154.422 20.5625 153.445 20.5625C151.98 20.5625 151.023 19.6318 150.695 18.2475L150.645 18.0943H157.116V18.0928H159.188C159.246 17.7621 159.274 17.4243 159.274 17.0877C159.274 13.8611 156.66 11.2357 153.445 11.2354ZM150.69 15.942L150.676 15.9887H156.215L156.2 15.942C155.879 14.5495 154.922 13.6129 153.445 13.6129C151.97 13.6129 151.012 14.5483 150.69 15.942Z" fill="#DCDCDC"/>
<path d="M19.4498 4C24.4509 4.00094 28.8226 7.37452 30.0903 12.2123C31.358 17.0499 29.2026 22.134 24.8441 24.5864C20.4857 27.0388 15.0214 26.2423 11.5443 22.6477C14.6609 21.3872 16.7008 18.3616 16.7008 14.9998C16.7008 11.6381 14.6609 8.61251 11.5443 7.35198C13.5919 5.23041 16.406 4.02339 19.3516 4.00033L19.4498 4ZM1.88887 9.99458C4.14435 7.03885 8.09807 5.95677 11.5443 7.35198C7.41909 11.6161 7.41909 18.3836 11.5443 22.6477C8.09807 24.043 4.14435 22.9608 1.88887 20.0051C-0.366603 17.0494 -0.366603 12.9503 1.88887 9.99458Z" fill="#DCDCDC"/>
</g>
<defs>
<clipPath id="clip0_349_11513">
<rect width="159.08" height="32" fill="white" transform="translate(0.197266)"/>
</clipPath>
</defs>
</svg>
