<svg width="145" height="32" viewBox="0 0 145 32" fill="none" xmlns="http://www.w3.org/2000/svg">
<g clip-path="url(#clip0_349_11557)">
<g clip-path="url(#clip1_349_11557)">
<path d="M52.9644 22.9526C55.45 22.9526 57.9778 21.6027 57.9778 18.4745C57.9778 15.9034 56.2927 14.9178 54.7338 14.1678L53.2382 13.4822C52.1639 12.968 51.5741 12.7109 51.5741 11.8967C51.5741 11.1254 52.1428 10.6326 53.1119 10.6326C53.9754 10.6326 54.6706 10.9968 55.6186 11.811C55.766 11.9181 55.9556 11.8538 56.0608 11.7039L57.4512 10.0112C57.5775 9.83978 57.5565 9.64696 57.4302 9.5184C56.2083 8.23283 54.7549 7.52577 53.0065 7.52577C50.4366 7.52577 48.3512 9.04702 48.3512 11.8538C48.3512 14.1893 49.8257 15.3248 51.3845 16.0319L53.175 16.889C54.1019 17.3175 54.7338 17.5961 54.7338 18.4745C54.7338 19.4173 53.9754 19.8458 52.9012 19.8458C51.7848 19.8458 50.9842 19.3744 50.0153 18.4102C49.8257 18.2603 49.6571 18.3246 49.5308 18.4745L48.1195 20.1029C47.972 20.2743 47.972 20.4457 48.0773 20.5742C48.962 21.7742 50.6262 22.9526 52.9644 22.9526ZM60.3502 26.7664H62.9413C63.1308 26.7664 63.2782 26.6379 63.2782 26.445V21.6241C63.9734 22.4598 64.9634 22.9526 66.2905 22.9526C69.1764 22.9526 71.1565 20.5742 71.1565 17.4461C71.1565 14.3392 69.1764 11.9395 66.2905 11.9395C64.7949 11.9395 63.7417 12.5395 63.0676 13.5251L63.0255 12.5181C63.0255 12.3252 62.878 12.1967 62.6884 12.1967H60.3502C60.1606 12.1967 60.0343 12.3252 60.0343 12.5181V26.445C60.0343 26.6379 60.1606 26.7664 60.3502 26.7664ZM65.5954 19.9743C64.2051 19.9743 63.2361 18.9673 63.2361 17.4246C63.2361 15.9248 64.2051 14.9178 65.5954 14.9178C66.9646 14.9178 67.9968 15.9248 67.9968 17.4461C67.9968 18.9887 66.9646 19.9743 65.5954 19.9743ZM78.1343 22.9526C79.5877 22.9526 80.9148 22.5241 81.7995 21.6241C81.9891 21.4527 81.9891 21.2814 81.9048 21.1528L81.0412 19.9101C80.9148 19.76 80.8306 19.7172 80.662 19.803C79.7984 20.2958 79.0822 20.3814 78.387 20.3814C76.9124 20.3814 75.9435 19.8243 75.5854 18.6888H81.5257C82.4736 18.6888 82.7474 18.046 82.7474 16.9747C82.7474 14.2749 80.9148 11.9395 77.7551 11.9395C74.5743 11.9395 72.4468 14.3179 72.4468 17.4032C72.4468 20.5957 74.7428 22.9526 78.1343 22.9526ZM75.5432 16.4176C75.7961 15.1749 76.7019 14.6393 77.7761 14.6393C78.8505 14.6393 79.672 15.1534 79.8827 16.4176H75.5432ZM89.7159 22.9526C91.1693 22.9526 92.4964 22.5241 93.3811 21.6241C93.5707 21.4527 93.5707 21.2814 93.4865 21.1528L92.6228 19.9101C92.4964 19.76 92.4122 19.7172 92.2436 19.803C91.38 20.2958 90.6638 20.3814 89.9686 20.3814C88.4941 20.3814 87.5251 19.8243 87.167 18.6888H93.1073C94.0552 18.6888 94.329 18.046 94.329 16.9747C94.329 14.2749 92.4964 11.9395 89.3367 11.9395C86.1559 11.9395 84.0283 14.3179 84.0283 17.4032C84.0283 20.5957 86.3244 22.9526 89.7159 22.9526ZM87.1249 16.4176C87.3777 15.1749 88.2835 14.6393 89.3577 14.6393C90.4321 14.6393 91.2536 15.1534 91.4643 16.4176H87.1249ZM101.087 22.9526C102.751 22.9526 104.141 22.2027 105.026 21.0242C105.152 20.8742 105.131 20.7028 105.005 20.5742L103.551 19.1601C103.383 18.9887 103.151 18.9887 103.004 19.1387C102.435 19.6744 101.887 19.9529 101.192 19.9529C99.6334 19.9529 98.7065 18.7531 98.7065 17.3818C98.7065 16.0319 99.6334 14.9392 101.15 14.9392C101.866 14.9392 102.414 15.1963 102.962 15.7533C103.13 15.9034 103.362 15.9034 103.53 15.732L104.984 14.3179C105.11 14.1893 105.131 13.9965 105.005 13.8679C104.12 12.6895 102.73 11.9395 101.003 11.9395C97.885 11.9395 95.6099 14.2964 95.6099 17.3818C95.6099 20.5314 97.9271 22.9526 101.087 22.9526ZM113.172 11.9395C111.697 11.9395 110.749 12.6895 110.159 13.7608V7.69718C110.159 7.50435 110.012 7.37578 109.822 7.37578H107.252C107.063 7.37578 106.936 7.50435 106.936 7.69718V22.3741C106.936 22.5669 107.063 22.6955 107.252 22.6955H109.822C110.012 22.6955 110.159 22.5669 110.159 22.3741V17.0604C110.159 15.6677 110.833 14.9392 111.95 14.9392C113.087 14.9392 113.677 15.6677 113.677 17.0604V22.3741C113.677 22.5669 113.825 22.6955 114.014 22.6955H116.563C116.753 22.6955 116.9 22.5669 116.9 22.3741V16.2891C116.9 13.5465 115.32 11.9395 113.172 11.9395ZM120.901 10.5254C121.913 10.5254 122.65 9.73266 122.65 8.72563C122.65 7.74003 121.913 6.94727 120.901 6.94727C119.891 6.94727 119.133 7.74003 119.133 8.72563C119.133 9.73266 119.891 10.5254 120.901 10.5254ZM119.596 22.6955H122.208C122.397 22.6955 122.524 22.5669 122.524 22.3741V12.5181C122.524 12.3252 122.397 12.1967 122.208 12.1967H119.596C119.406 12.1967 119.28 12.3252 119.28 12.5181V22.3741C119.28 22.5669 119.406 22.6955 119.596 22.6955ZM125.911 22.6955H128.502C128.691 22.6955 128.839 22.5669 128.839 22.3741V14.7249H130.903C131.093 14.7249 131.219 14.5964 131.219 14.4035V12.5181C131.219 12.3252 131.093 12.1967 130.903 12.1967H128.839V11.1468C128.839 10.4397 129.07 9.92549 130.061 9.92549C130.293 9.92549 130.587 9.98977 130.945 10.0541C131.093 10.0755 131.219 10.0541 131.219 9.90407V7.74003C131.219 7.61147 131.156 7.46149 131.03 7.39721C130.398 7.07582 129.935 7.03297 129.302 7.03297C127.006 7.03297 125.595 8.14712 125.595 10.7183V12.1967H124.373C124.184 12.1967 124.057 12.3252 124.057 12.5181V14.4035C124.057 14.5964 124.184 14.7249 124.373 14.7249H125.595V22.3741C125.595 22.5669 125.722 22.6955 125.911 22.6955ZM134.551 26.7664H137.058C137.226 26.7664 137.375 26.6807 137.438 26.5093L142.914 12.5609C142.999 12.3252 142.872 12.1967 142.641 12.1967H140.029C139.86 12.1967 139.692 12.2824 139.629 12.4538L137.354 18.8816L135.079 12.4538C135.016 12.2824 134.846 12.1967 134.678 12.1967H132.066C131.834 12.1967 131.708 12.3252 131.792 12.5609L135.795 22.7168L134.278 26.3807C134.172 26.6379 134.299 26.7664 134.551 26.7664Z" fill="#DCDCDC"/>
<path fill-rule="evenodd" clip-rule="evenodd" d="M9.1221 12.5081L10.0967 11.2259C10.5384 10.6446 11.265 10.3714 11.9694 10.5217C12.5148 10.638 12.8647 11.1848 12.7511 11.7429C12.7417 11.7891 12.7292 11.8346 12.7138 11.8791C11.9041 14.2027 11.6464 15.7375 11.9406 16.4834C13.1515 15.0108 19.3376 5.40892 21.2929 4.95313C21.9456 4.80095 22.5953 5.21916 22.7441 5.88724C22.7944 6.11326 22.7818 6.34918 22.7078 6.56827C20.8603 12.0352 20.0781 15.341 20.3613 16.4854C21.337 15.0802 22.7862 13.1891 24.7091 10.8119C25.4313 9.91902 26.5836 9.51886 27.6876 9.77756C28.6585 10.005 29.2653 10.9949 29.0431 11.9885C29.0417 11.9951 29.0403 12.0016 29.0386 12.0081C28.3696 14.8561 28.1216 16.5223 28.2946 17.0069C28.371 16.9474 28.4486 16.8864 28.5274 16.8238C29.4092 16.1232 30.5134 15.7819 31.6267 15.8655L40.2655 16.5143L34.5421 17.1803C32.9442 17.3663 31.4808 18.1845 30.4646 19.4601L29.0949 21.1793C28.6466 21.7423 27.9577 22.0452 27.2501 21.9906C26.5469 21.9365 25.9658 21.4087 25.8296 20.7009C25.4952 18.9622 25.4415 16.9099 25.669 14.544C23.9504 17.1721 22.4593 20.9516 21.1956 25.8828C20.9783 26.7307 20.2296 27.3218 19.3731 27.3218C18.5552 27.3218 17.8853 26.657 17.8601 25.8202L17.4814 13.2112L13.8186 20.5987C13.4373 21.3675 12.5986 21.7777 11.7746 21.5984C10.9017 21.4084 10.1795 20.7841 9.85065 19.935L9.44023 18.8753C8.85946 17.3759 7.5487 16.3014 5.99215 16.0488C4.28041 15.771 2.56867 15.4932 0.856934 15.2155L4.66975 14.9395C6.42381 14.8125 8.04248 13.9286 9.1221 12.5081Z" fill="#DCDCDC"/>
</g>
</g>
<defs>
<clipPath id="clip0_349_11557">
<rect width="143.5" height="32" fill="white" transform="translate(0.856934)"/>
</clipPath>
<clipPath id="clip1_349_11557">
<rect width="143.5" height="28" fill="white" transform="translate(0.856934 2)"/>
</clipPath>
</defs>
</svg>
