<svg width="91" height="32" viewBox="0 0 91 32" fill="none" xmlns="http://www.w3.org/2000/svg">
<g clip-path="url(#clip0_349_11553)">
<g clip-path="url(#clip1_349_11553)">
<path d="M8.06098 16.2163C10.1023 15.5094 12.3239 16.5986 13.0308 18.6471C13.7305 20.6956 12.6485 22.9245 10.6072 23.6314C8.5659 24.3382 6.34426 23.2491 5.63738 21.2005C4.93049 19.152 6.01967 16.916 8.06098 16.2163ZM2.62229 12.0255C0.970491 12.5953 0.0904915 14.4058 0.660328 16.0648C1.23016 17.7238 3.03344 18.6038 4.68525 18.034C6.33705 17.4642 7.21705 15.6537 6.64721 13.9946C6.07738 12.3356 4.2741 11.4484 2.62229 12.0255ZM11.4295 12.1986C10.6505 12.4655 10.2393 13.3166 10.5062 14.0956C10.7731 14.8746 11.6243 15.293 12.3961 15.0189C13.1751 14.752 13.5862 13.9009 13.3193 13.1219C13.0525 12.3428 12.2085 11.9317 11.4295 12.1986ZM7.38295 8.05825C6.01967 8.53431 5.29836 10.0202 5.76721 11.3835C6.23606 12.7468 7.72197 13.4753 9.07803 13.0064C10.4413 12.5376 11.1626 11.0445 10.6938 9.6812C10.2321 8.31792 8.74623 7.5894 7.38295 8.05825Z" fill="#DCDCDC"/>
<path d="M17.1206 21.381L18.5344 19.4551C19.4865 20.3567 20.7055 20.9193 22.2419 20.9193C23.634 20.9193 24.7016 20.4289 24.7016 19.5561C24.7016 18.5823 23.4826 18.2649 22.0183 17.9259C20.0203 17.4643 17.5101 16.8295 17.5101 14.103C17.5101 11.5423 19.775 10.28 22.4583 10.28C24.5068 10.28 26.0865 11.0374 27.1901 11.939L25.7547 13.8649C24.9036 13.1364 23.8072 12.6459 22.516 12.6459C21.297 12.6459 20.3016 13.057 20.3016 13.9154C20.3016 14.8892 21.499 15.1849 23.0065 15.5239C25.0045 15.9639 27.4931 16.5987 27.4931 19.3036C27.4931 21.8859 25.1993 23.2997 22.2996 23.2997C20.0203 23.278 18.318 22.4269 17.1206 21.381ZM41.8111 16.7718C41.8111 20.4793 39.1783 23.278 35.6944 23.278C33.8695 23.278 32.3331 22.499 31.3088 21.179V26.9856H28.5822V10.5541H31.3088V12.3574C32.3259 11.0446 33.8622 10.2656 35.6944 10.2656C39.1783 10.2656 41.8111 13.0643 41.8111 16.7718ZM38.9836 16.7718C38.9836 14.579 37.3534 12.8984 35.1606 12.8984C32.9678 12.8984 31.3088 14.579 31.3088 16.7718C31.3088 18.9646 32.9678 20.6452 35.1606 20.6452C37.3462 20.6452 38.9836 18.9646 38.9836 16.7718ZM43.0734 16.7718C43.0734 13.0643 45.9226 10.2656 49.7239 10.2656C53.5036 10.2656 56.3744 13.0715 56.3744 16.7718C56.3744 20.4721 53.4963 23.278 49.7239 23.278C45.9298 23.278 43.0734 20.4793 43.0734 16.7718ZM53.554 16.7718C53.554 14.579 51.9239 12.8984 49.7311 12.8984C47.5383 12.8984 45.8793 14.579 45.8793 16.7718C45.8793 18.9646 47.5383 20.6452 49.7311 20.6452C51.9239 20.6452 53.554 18.9646 53.554 16.7718ZM61.6977 13.0426V18.9141C61.6977 20.0826 62.354 20.6452 63.5009 20.6452C64.1862 20.6452 64.7199 20.4505 65.2104 20.2052V22.7659C64.5252 23.1049 63.8472 23.278 62.9455 23.278C60.2622 23.278 58.9711 21.7705 58.9711 19.3541V13.0426H56.8721V10.5541H58.9711V6.99803H61.6977V10.5541H65.2104V13.0426H61.6977ZM84.7796 10.5541V22.9823H82.0531V21.2007C81.0288 22.4918 79.5213 23.2708 77.6891 23.2708C74.1763 23.2708 71.5724 20.4649 71.5724 16.7646C71.5724 13.0643 74.1836 10.2584 77.6891 10.2584C79.5141 10.2584 81.0288 11.0374 82.0531 12.3285V10.5541H84.7796ZM82.0459 16.7718C82.0459 14.579 80.4157 12.8984 78.2229 12.8984C76.0085 12.8984 74.3711 14.579 74.3711 16.7718C74.3711 18.9646 76.0013 20.6452 78.2229 20.6452C80.4157 20.6452 82.0459 18.9646 82.0459 16.7718ZM87.1672 6.73115C87.1672 5.72852 87.9245 5 88.8983 5C89.9009 5 90.6511 5.72852 90.6511 6.73115C90.6511 7.70492 89.8937 8.4623 88.8983 8.4623C87.9245 8.4623 87.1672 7.70492 87.1672 6.73115ZM87.535 10.5541H90.2616V22.9823H87.535V10.5541ZM68.4275 20.2846C67.6485 20.5515 67.2373 21.4026 67.5042 22.1816C67.7711 22.9607 68.6222 23.379 69.394 23.1049C70.1731 22.838 70.5842 21.9869 70.3173 21.2079C70.0504 20.4289 69.1993 20.0177 68.4275 20.2846Z" fill="#DCDCDC"/>
</g>
</g>
<defs>
<clipPath id="clip0_349_11553">
<rect width="90.16" height="32" fill="white" transform="translate(0.487305)"/>
</clipPath>
<clipPath id="clip1_349_11553">
<rect width="90.1639" height="22" fill="white" transform="translate(0.487305 5)"/>
</clipPath>
</defs>
</svg>
