<svg width="106" height="32" viewBox="0 0 106 32" fill="none" xmlns="http://www.w3.org/2000/svg">
<g clip-path="url(#clip0_349_11729)">
<g clip-path="url(#clip1_349_11729)">
<path fill-rule="evenodd" clip-rule="evenodd" d="M6.35929 4.35943C8.64082 2.82109 11.3232 2 14.0672 2C15.8892 1.99949 17.6936 2.36127 19.377 3.06465C21.0605 3.76804 22.5901 4.79925 23.8786 6.09938C25.167 7.39949 26.1889 8.94305 26.8859 10.6418C27.583 12.3406 27.9415 14.1613 27.9409 16C27.9409 18.7689 27.1273 21.4757 25.6027 23.778C24.0783 26.0803 21.9115 27.8747 19.3764 28.9343C16.8413 29.9939 14.0517 30.2712 11.3605 29.731C8.66925 29.1908 6.19719 27.8574 4.25691 25.8995C2.31662 23.9415 0.99527 21.447 0.459947 18.7312C-0.0753766 16.0156 0.19937 13.2006 1.24945 10.6424C2.29952 8.08427 4.07776 5.89777 6.35929 4.35943ZM4.09238 14.1001L8.2549 18.3044C8.29623 18.3476 8.34575 18.3821 8.40053 18.4055C8.45532 18.4291 8.51423 18.4412 8.57376 18.4412C8.63329 18.4412 8.69222 18.4291 8.74701 18.4055C8.8018 18.3821 8.85132 18.3476 8.89264 18.3044L13.0475 14.1001C13.1305 14.0164 13.1772 13.9027 13.1772 13.7842C13.1772 13.6657 13.1305 13.5521 13.0475 13.4682L8.88118 9.26782C8.7981 9.18405 8.68549 9.13699 8.56806 9.13699C8.45061 9.13699 8.33797 9.18405 8.2549 9.26782L4.09238 13.4682C4.00935 13.5521 3.96274 13.6657 3.96274 13.7842C3.96274 13.9027 4.00935 14.0164 4.09238 14.1001ZM14.3803 23.8496L18.5428 19.6493C18.6259 19.5655 18.6724 19.4519 18.6724 19.3333C18.6724 19.2148 18.6259 19.1012 18.5428 19.0174L14.3803 14.8131C14.2973 14.7293 14.1845 14.6822 14.0672 14.6822C13.9497 14.6822 13.837 14.7293 13.754 14.8131L9.58767 19.0174C9.50466 19.1012 9.45801 19.2148 9.45801 19.3333C9.45801 19.4519 9.50466 19.5655 9.58767 19.6493L13.754 23.8496C13.837 23.9334 13.9497 23.9805 14.0672 23.9805C14.1845 23.9805 14.2973 23.9334 14.3803 23.8496ZM19.8756 18.3044L24.0381 14.1001C24.0796 14.059 24.1127 14.0097 24.1352 13.9555C24.1577 13.9012 24.1693 13.8431 24.1693 13.7842C24.1693 13.7254 24.1577 13.6671 24.1352 13.6128C24.1127 13.5586 24.0796 13.5095 24.0381 13.4682L19.8756 9.26782C19.7925 9.18405 19.6799 9.13699 19.5624 9.13699C19.445 9.13699 19.3324 9.18405 19.2493 9.26782L15.0829 13.4682C15 13.5521 14.9533 13.6657 14.9533 13.7842C14.9533 13.9027 15 14.0164 15.0829 14.1001L19.2493 18.3044C19.3324 18.3882 19.445 18.4353 19.5624 18.4353C19.6799 18.4353 19.7925 18.3882 19.8756 18.3044Z" fill="#DCDCDC"/>
<path d="M32.6837 8.11354L37.0447 22.6222C37.0672 22.7118 37.1209 22.7903 37.1958 22.8434C37.2708 22.8964 37.3623 22.9206 37.4533 22.9112H40.0616C40.1498 22.9214 40.2385 22.8971 40.3095 22.8434C40.3806 22.7896 40.4285 22.7105 40.4435 22.6222L44.755 8.11354C44.8161 7.92858 44.7359 7.78214 44.5487 7.78214H42.5821C42.4978 7.77825 42.4147 7.8026 42.3456 7.8514C42.2765 7.9002 42.2254 7.97069 42.2002 8.05189L39.9929 15.7205C39.569 17.1655 39.0916 18.9035 38.8052 20.2022H38.7441C38.4768 18.9228 38.0071 17.1848 37.5985 15.759L35.3454 8.05189C35.3331 7.9704 35.2901 7.89687 35.2253 7.84661C35.1605 7.79635 35.079 7.77325 34.9978 7.78214H32.8669C32.8279 7.78027 32.7892 7.78943 32.755 7.80857C32.7208 7.82773 32.6926 7.85612 32.6736 7.89055C32.6545 7.92499 32.6454 7.96411 32.6472 8.00349C32.649 8.04289 32.6616 8.081 32.6837 8.11354Z" fill="#DCDCDC"/>
<path fill-rule="evenodd" clip-rule="evenodd" d="M53.7792 15.0383V22.6222C53.7833 22.6612 53.7788 22.7006 53.766 22.7376C53.753 22.7746 53.7321 22.8082 53.7046 22.836C53.6771 22.8637 53.6438 22.8849 53.6071 22.8979C53.5704 22.9109 53.5313 22.9155 53.4927 22.9112H51.6903C51.6516 22.9155 51.6125 22.9109 51.5758 22.8979C51.5392 22.8849 51.5058 22.8637 51.4783 22.836C51.4508 22.8082 51.4299 22.7746 51.417 22.7376C51.404 22.7006 51.3996 22.6612 51.4038 22.6222V21.2696C51.0725 21.8377 50.5997 22.3084 50.0322 22.635C49.4648 22.9615 48.8225 23.1324 48.1693 23.1309C46.0384 23.1309 44.6865 21.7243 44.6865 19.6626C44.6865 17.601 46.0384 16.3986 48.9865 16.1944C49.7566 16.1362 50.5297 16.1297 51.3007 16.1751V15.1385C51.3007 13.8591 50.6057 13.3428 49.4371 13.3428C48.2686 13.3428 47.8409 13.7744 47.5468 14.5836C47.4628 14.811 47.3826 14.8495 47.1649 14.7879L45.3815 14.3332C45.1982 14.2715 45.1371 14.1674 45.1982 14.0017C45.5266 12.391 46.9816 11.2734 49.5403 11.2734C52.1828 11.2734 53.7792 12.5374 53.7792 15.0383ZM51.3007 19.2311V17.8284C50.5979 17.7986 49.894 17.8115 49.1928 17.8669C47.86 18.0133 47.1039 18.468 47.1039 19.5431C47.1039 20.4719 47.7377 21.0846 48.8223 21.0846C49.9718 21.0731 50.85 20.391 51.3007 19.2311Z" fill="#DCDCDC"/>
<path d="M58.7395 22.6224V15.5935C59.1482 14.4182 60.0494 13.6089 61.1416 13.6089C62.2872 13.6089 62.8639 14.3565 62.8639 15.5935V22.6224C62.8639 22.8074 62.9631 22.9115 63.1694 22.9115H65.117C65.156 22.9182 65.1962 22.9154 65.234 22.9033C65.2718 22.891 65.3062 22.87 65.3342 22.8417C65.3622 22.8134 65.3832 22.7787 65.3952 22.7406C65.4072 22.7024 65.41 22.6619 65.4034 22.6224V15.1812C65.4034 12.8653 64.2348 11.293 62.0849 11.293C61.4078 11.3002 60.7429 11.4759 60.1494 11.8047C59.5558 12.1334 59.0518 12.6049 58.6822 13.1774V11.7708C58.6842 11.7332 58.678 11.6956 58.664 11.6607C58.65 11.6257 58.6286 11.5943 58.6014 11.5686C58.574 11.5429 58.5415 11.5235 58.5059 11.5119C58.4705 11.5002 58.4329 11.4965 58.3958 11.5011H56.4864C56.4491 11.4959 56.411 11.4991 56.375 11.5105C56.3392 11.5219 56.3061 11.5412 56.2784 11.567C56.2506 11.5927 56.2288 11.6244 56.2147 11.6596C56.2005 11.6949 56.1942 11.7328 56.1962 11.7708V22.6224C56.1962 22.8074 56.2993 22.9115 56.5055 22.9115H58.4532C58.4917 22.9157 58.5308 22.9111 58.5675 22.8982C58.6043 22.8851 58.6375 22.864 58.665 22.8363C58.6925 22.8085 58.7135 22.7749 58.7264 22.7379C58.7393 22.7009 58.7437 22.6614 58.7395 22.6224Z" fill="#DCDCDC"/>
<path d="M70.9677 8.98061V11.5856H73.2208C73.3851 11.5856 73.4882 11.6897 73.4882 11.8939V13.3853C73.4882 13.5895 73.3851 13.6742 73.2208 13.6742H70.9677V19.4199C70.9677 20.2446 71.4183 20.6569 72.3387 20.6569H73.2017C73.241 20.6509 73.2812 20.6544 73.3189 20.667C73.3567 20.6797 73.3909 20.7012 73.4189 20.7297C73.4468 20.7583 73.4676 20.7931 73.4796 20.8313C73.4917 20.8696 73.4946 20.9102 73.4882 20.9497V22.6223C73.4948 22.6617 73.492 22.7022 73.48 22.7403C73.4679 22.7785 73.447 22.8131 73.419 22.8414C73.3909 22.8697 73.3566 22.8909 73.3187 22.903C73.281 22.9151 73.2408 22.9179 73.2017 22.9112H71.93C69.6388 22.9112 68.4931 21.6704 68.4931 19.7706V13.6742H67.0802C67.0412 13.6801 67.0014 13.6767 66.964 13.6642C66.9266 13.6518 66.8927 13.6306 66.8648 13.6025C66.8369 13.5744 66.8161 13.5401 66.8037 13.5024C66.7914 13.4647 66.788 13.4246 66.7938 13.3853V11.8939C66.7938 11.6897 66.8968 11.5856 67.0802 11.5856H68.5122V8.98061C68.5093 8.94192 68.5148 8.90306 68.5282 8.86669C68.5416 8.83032 68.5625 8.79729 68.5898 8.76985C68.617 8.74242 68.6496 8.72123 68.6857 8.70772C68.7217 8.69421 68.7603 8.68872 68.7986 8.69159H70.6851C70.7234 8.68794 70.7621 8.69294 70.7983 8.70623C70.8345 8.71952 70.8674 8.74076 70.8944 8.76843C70.9214 8.7961 70.942 8.82948 70.9548 8.86618C70.9674 8.90289 70.9719 8.94197 70.9677 8.98061Z" fill="#DCDCDC"/>
<path fill-rule="evenodd" clip-rule="evenodd" d="M83.7494 22.6222V15.0383C83.7494 12.5374 82.1531 11.2734 79.5105 11.2734C76.9518 11.2734 75.493 12.4063 75.1684 14.0017C75.1073 14.1674 75.1684 14.2715 75.3518 14.3332L77.139 14.7879C77.3567 14.8495 77.4407 14.811 77.5208 14.5836C77.8111 13.7744 78.2388 13.3428 79.4073 13.3428C80.5758 13.3428 81.271 13.8591 81.271 15.1385V16.1751C80.4999 16.1297 79.7268 16.1362 78.9567 16.1944C76.0048 16.3986 74.6567 17.601 74.6567 19.6626C74.6567 21.7243 76.0048 23.1309 78.1357 23.1309C78.7894 23.1327 79.4324 22.9619 80.0005 22.6354C80.5686 22.3089 81.0421 21.838 81.374 21.2696V22.6222C81.3698 22.6612 81.3742 22.7006 81.3872 22.7376C81.4001 22.7746 81.421 22.8082 81.4485 22.836C81.476 22.8637 81.5094 22.8849 81.546 22.8979C81.5827 22.9109 81.6218 22.9155 81.6605 22.9112H83.4629C83.5015 22.9155 83.5406 22.9109 83.5773 22.8979C83.614 22.8849 83.6473 22.8637 83.6748 22.836C83.7023 22.8082 83.7232 22.7746 83.7362 22.7376C83.7491 22.7006 83.7535 22.6612 83.7494 22.6222ZM81.271 17.8284V19.2311C80.8203 20.391 79.9382 21.0731 78.7925 21.0846C77.7079 21.0846 77.0702 20.4719 77.0702 19.5431C77.0702 18.468 77.8302 18.0133 79.1591 17.8669C79.8616 17.8115 80.5668 17.7986 81.271 17.8284Z" fill="#DCDCDC"/>
<path fill-rule="evenodd" clip-rule="evenodd" d="M95.5492 23.6975C95.5492 25.6242 94.1133 27.2505 90.2448 27.2505C86.7391 27.2505 85.4102 26.0134 85.4102 24.1946C85.4102 23.2235 85.983 22.314 87.1515 21.817C86.9146 21.6416 86.7195 21.4149 86.5807 21.1535C86.4419 20.8921 86.363 20.6026 86.3496 20.3063C86.3514 19.946 86.462 19.5946 86.6666 19.2993C86.8713 19.0039 87.1604 18.7786 87.4953 18.6532C86.9387 18.334 86.4802 17.8663 86.1696 17.3014C85.8591 16.7365 85.7086 16.0963 85.7347 15.4509C85.7347 13.1773 87.1249 11.501 90.1379 11.501H95.2169C95.2497 11.5029 95.2816 11.5114 95.3108 11.5262C95.3401 11.541 95.366 11.5616 95.3872 11.5869C95.4082 11.6121 95.424 11.6415 95.4335 11.6731C95.443 11.7047 95.446 11.7379 95.4422 11.7707V13.2196C95.4444 13.2582 95.4386 13.2968 95.4249 13.3329C95.4113 13.369 95.3904 13.4017 95.3633 13.429C95.3363 13.4563 95.3038 13.4775 95.268 13.4912C95.2322 13.505 95.1941 13.5109 95.1558 13.5086H93.3724C93.7019 13.7927 93.9633 14.1482 94.1372 14.5486C94.3111 14.949 94.3931 15.3839 94.3768 15.8208C94.3768 17.7861 93.0058 19.289 90.1761 19.289H89.4581C88.7822 19.289 88.4959 19.5818 88.4959 19.9712C88.4959 20.3604 88.8051 20.6146 89.4581 20.6146H91.7953C94.4417 20.6378 95.5492 21.9403 95.5492 23.6975ZM93.1318 23.9249C93.1318 23.2621 92.75 22.6416 91.4324 22.6416H89.3627C88.1521 22.6416 87.7244 23.2852 87.7244 23.9441C87.7244 24.8959 88.4882 25.5164 90.3976 25.5164C92.307 25.5164 93.1318 24.8343 93.1318 23.9249ZM88.0261 15.4509C88.0261 16.6917 88.744 17.5164 90.1379 17.5164C91.4478 17.5164 92.1848 16.7726 92.1848 15.4701C92.1848 14.2293 91.5089 13.4239 90.115 13.4239C88.7211 13.4239 88.0261 14.1677 88.0261 15.4509Z" fill="#DCDCDC"/>
<path fill-rule="evenodd" clip-rule="evenodd" d="M99.0707 18.653V17.994H105.456C105.845 17.994 105.971 17.8284 105.971 17.497V15.759C105.971 13.2002 104.417 11.2734 101.389 11.2734C98.2344 11.2734 96.6343 13.2195 96.6343 15.8014V18.6106C96.6343 21.258 98.2955 23.1385 101.427 23.1385C103.577 23.1385 105.154 22.2292 105.83 20.7223C105.956 20.4719 105.933 20.3062 105.647 20.1636L104.356 19.5008C104.089 19.3775 103.99 19.4198 103.825 19.6857C103.436 20.4526 102.977 21.0499 101.45 21.0499C99.8345 21.0307 99.0707 20.1212 99.0707 18.653ZM99.0707 16.2985V15.6973C99.0707 14.2946 99.8001 13.3621 101.328 13.3621C102.855 13.3621 103.619 14.2946 103.619 15.6973V16.2985H99.0707Z" fill="#DCDCDC"/>
</g>
</g>
<defs>
<clipPath id="clip0_349_11729">
<rect width="105.78" height="32" fill="white" transform="translate(0.193359)"/>
</clipPath>
<clipPath id="clip1_349_11729">
<rect width="105.778" height="28" fill="white" transform="translate(0.193359 2)"/>
</clipPath>
</defs>
</svg>
